<?xml version="1.0" encoding="UTF-8"?>
<svg version="1.1" xmlns="http://www.w3.org/2000/svg" width="590" height="590">
<path d="M0 0 C1.70148322 -0.0018703 3.40296602 -0.00417188 5.10444814 -0.00686532 C9.76175035 -0.01296261 14.41903455 -0.01285217 19.07633984 -0.01167095 C24.10649396 -0.01146642 29.13664238 -0.01699071 34.16679382 -0.02172852 C44.01508973 -0.03002429 53.86337965 -0.03278287 63.71167877 -0.03334089 C71.71951271 -0.03381657 79.72734468 -0.03587389 87.73517799 -0.03904152 C110.4545118 -0.04784521 133.17384088 -0.05246135 155.8931764 -0.05171105 C157.11721069 -0.05167109 158.34124498 -0.05163113 159.60237122 -0.05158997 C160.82790544 -0.05154909 162.05343967 -0.0515082 163.3161113 -0.05146609 C183.17375276 -0.05105971 203.03137525 -0.0606279 222.88901123 -0.07472833 C243.29403551 -0.08910276 263.69905055 -0.09599793 284.10408002 -0.09513456 C295.55376157 -0.09480295 307.00342323 -0.09753397 318.4531002 -0.10831261 C328.20209218 -0.11743165 337.95105526 -0.11958133 347.70004966 -0.11280318 C352.66997662 -0.10954506 357.63984818 -0.10945568 362.60976982 -0.11815643 C367.16778118 -0.1260537 371.72569349 -0.12455726 376.28370253 -0.1158723 C377.92430612 -0.11434439 379.56491722 -0.11612644 381.20551195 -0.12173238 C412.68580278 -0.22209537 439.34820225 8.48095098 462.28181458 30.75871277 C468.51659008 36.96608449 473.07055459 43.3403459 477.21931458 51.13371277 C477.84386536 52.25906433 477.84386536 52.25906433 478.48103333 53.40715027 C484.28197801 64.31896443 484.65872806 74.25529885 484.63391113 86.32374573 C484.64095265 88.19063656 484.64928154 90.0575229 484.65878326 91.92440283 C484.68098254 97.04373197 484.68448525 102.1629278 484.68478382 107.2822988 C484.68828924 112.80814851 484.70890994 118.33393926 484.72711182 123.85975647 C484.76351097 135.93862293 484.77748638 148.017453 484.78694892 160.09636641 C484.79297399 167.64371946 484.80373607 175.19106104 484.81545448 182.73840714 C484.84721047 203.64933643 484.87403079 224.5602585 484.88020611 245.47121239 C484.88040981 246.13965765 484.88061351 246.80810291 484.88082338 247.49680409 C484.88164676 250.20551876 484.88245066 252.91423344 484.88325238 255.62294811 C484.88385753 257.66152982 484.88447133 259.70011153 484.88508606 261.73869324 C484.88528347 262.41232142 484.88548089 263.08594961 484.88568428 263.77999076 C484.89230861 285.60697034 484.93253183 307.43370366 484.99329157 329.26059544 C485.05748674 352.36410061 485.09252274 375.46749296 485.09403354 398.57110274 C485.09553245 411.15452363 485.10968184 423.7376399 485.15685081 436.32098007 C485.19685934 447.03873434 485.20910979 457.75607935 485.18586519 468.47389059 C485.17482488 473.93672865 485.17641323 479.39875357 485.21333313 484.86149597 C485.24689456 489.8747878 485.24265786 494.88665421 485.20986757 499.89993806 C485.20445788 501.70148765 485.21221781 503.50314247 485.23541638 505.30455081 C485.43487901 521.87027171 480.59804984 536.99079172 470.21931458 550.13371277 C469.6031427 550.94840027 468.98697083 551.76308777 468.35212708 552.60246277 C463.09202846 559.39760962 457.39788869 566.28372571 450.21931458 571.13371277 C449.55931458 571.13371277 448.89931458 571.13371277 448.21931458 571.13371277 C448.21931458 571.79371277 448.21931458 572.45371277 448.21931458 573.13371277 C446.08157737 574.66944352 443.97567159 576.04080878 441.71931458 577.38371277 C440.71348328 577.98324768 440.71348328 577.98324768 439.68733215 578.59489441 C423.56843609 587.89677446 407.91543517 590.43821285 389.55873108 590.39440918 C387.76166365 590.3974325 385.96459751 590.40132289 384.16753364 590.40600175 C379.24604725 590.4162673 374.32463383 590.41410358 369.4031415 590.40982115 C364.08874511 590.40735129 358.77436617 590.41637137 353.4599762 590.42385864 C343.05454 590.43660079 332.64912962 590.4383999 322.24368694 590.43605838 C313.7838972 590.43427438 305.32411528 590.43602661 296.86432648 590.44028282 C295.05733576 590.44117561 295.05733576 590.44117561 293.21384017 590.44208642 C290.76644375 590.4432982 288.31904733 590.44451233 285.8716509 590.4457288 C262.92499411 590.45660264 239.97835201 590.45444268 217.03169438 590.44834395 C196.05142463 590.44317593 175.07120131 590.45442751 154.09094074 590.47344217 C132.53669563 590.49282693 110.98247249 590.50107539 89.4282186 590.49731892 C77.33189856 590.49540772 65.23561804 590.4978865 53.13930511 590.51203346 C42.8405734 590.52395639 32.54190552 590.52534194 22.24317291 590.5132433 C16.99183654 590.50736083 11.74061689 590.50623772 6.48928833 590.5182457 C1.67531332 590.52912536 -3.13844778 590.52597635 -7.95241287 590.51198401 C-9.68721016 590.50934281 -11.42202432 590.51168536 -13.15680501 590.51971988 C-26.28735412 590.57627713 -38.79491846 589.5666252 -50.90568542 583.94621277 C-51.9026947 583.49447693 -51.9026947 583.49447693 -52.91984558 583.03361511 C-63.55032438 578.06182981 -72.32741396 571.2020717 -80.78068542 563.13371277 C-81.38267761 562.60648621 -81.9846698 562.07925964 -82.60490417 561.53605652 C-93.51493711 551.59241345 -104.99089641 533.32808678 -106.03598642 518.51510727 C-106.0486117 517.14235548 -106.05044947 515.76947712 -106.04354095 514.39668465 C-106.04764622 513.63309859 -106.05175149 512.86951254 -106.05598116 512.08278751 C-106.06730036 509.5211758 -106.06440931 506.95977987 -106.06156921 504.39814758 C-106.06673773 502.54408486 -106.07276439 500.69002436 -106.07957602 498.83596694 C-106.09570899 493.73829183 -106.09929477 488.64067305 -106.10077095 483.54297543 C-106.1044734 478.04577563 -106.11956897 472.54860503 -106.13304138 467.05142212 C-106.1602061 455.02836333 -106.17225772 443.00531789 -106.1810627 430.98223352 C-106.186589 423.472613 -106.19506409 415.96299763 -106.20407104 408.45338058 C-106.22845827 387.65579898 -106.24912586 366.85822063 -106.25582123 346.06062508 C-106.25626449 344.71602209 -106.25670806 343.37141911 -106.25715193 342.02681612 C-106.25759321 340.67901249 -106.25803417 339.33120886 -106.25847483 337.98340523 C-106.25935992 335.27960149 -106.26025415 332.57579775 -106.26115417 329.87199402 C-106.26148235 328.86641713 -106.26148235 328.86641713 -106.26181715 327.84052556 C-106.26907351 306.11808265 -106.30089511 284.39577344 -106.3475349 262.67338171 C-106.39678751 239.6919126 -106.42415617 216.71049834 -106.42655706 193.72896945 C-106.42838877 181.20769298 -106.43984756 168.6865915 -106.47619629 156.16536331 C-106.50704788 145.50020451 -106.51721027 134.83527475 -106.50072008 124.17007978 C-106.49292386 118.73206773 -106.49468273 113.29451656 -106.52283478 107.85656166 C-106.54841583 102.86942251 -106.5458294 97.88308808 -106.52165335 92.89594923 C-106.5177569 91.10042407 -106.52381496 89.30484089 -106.54134208 87.50939704 C-106.74083303 65.67577055 -98.22453032 47.25149922 -83.14884949 31.49333191 C-81.70676294 30.02626326 -80.24437324 28.57923067 -78.78068542 27.13371277 C-78.10392761 26.45824402 -77.4271698 25.78277527 -76.72990417 25.08683777 C-65.2942359 14.41028238 -51.18033642 7.42557262 -36.21818542 3.38371277 C-35.43870544 3.17262878 -34.65922546 2.9615448 -33.85612488 2.74406433 C-22.68058685 -0.10926453 -11.45523974 -0.01196786 0 0 Z " fill="#050604" transform="translate(105.78068542480469,-0.1337127685546875)"/>
<path d="M0 0 C1.70148322 -0.0018703 3.40296602 -0.00417188 5.10444814 -0.00686532 C9.76175035 -0.01296261 14.41903455 -0.01285217 19.07633984 -0.01167095 C24.10649396 -0.01146642 29.13664238 -0.01699071 34.16679382 -0.02172852 C44.01508973 -0.03002429 53.86337965 -0.03278287 63.71167877 -0.03334089 C71.71951271 -0.03381657 79.72734468 -0.03587389 87.73517799 -0.03904152 C110.4545118 -0.04784521 133.17384088 -0.05246135 155.8931764 -0.05171105 C157.11721069 -0.05167109 158.34124498 -0.05163113 159.60237122 -0.05158997 C160.82790544 -0.05154909 162.05343967 -0.0515082 163.3161113 -0.05146609 C183.17375276 -0.05105971 203.03137525 -0.0606279 222.88901123 -0.07472833 C243.29403551 -0.08910276 263.69905055 -0.09599793 284.10408002 -0.09513456 C295.55376157 -0.09480295 307.00342323 -0.09753397 318.4531002 -0.10831261 C328.20209218 -0.11743165 337.95105526 -0.11958133 347.70004966 -0.11280318 C352.66997662 -0.10954506 357.63984818 -0.10945568 362.60976982 -0.11815643 C367.16778118 -0.1260537 371.72569349 -0.12455726 376.28370253 -0.1158723 C377.92430612 -0.11434439 379.56491722 -0.11612644 381.20551195 -0.12173238 C412.68580278 -0.22209537 439.34820225 8.48095098 462.28181458 30.75871277 C468.51659008 36.96608449 473.07055459 43.3403459 477.21931458 51.13371277 C477.84386536 52.25906433 477.84386536 52.25906433 478.48103333 53.40715027 C484.28197801 64.31896443 484.65872806 74.25529885 484.63391113 86.32374573 C484.64095265 88.19063656 484.64928154 90.0575229 484.65878326 91.92440283 C484.68098254 97.04373197 484.68448525 102.1629278 484.68478382 107.2822988 C484.68828924 112.80814851 484.70890994 118.33393926 484.72711182 123.85975647 C484.76351097 135.93862293 484.77748638 148.017453 484.78694892 160.09636641 C484.79297399 167.64371946 484.80373607 175.19106104 484.81545448 182.73840714 C484.84721047 203.64933643 484.87403079 224.5602585 484.88020611 245.47121239 C484.88040981 246.13965765 484.88061351 246.80810291 484.88082338 247.49680409 C484.88164676 250.20551876 484.88245066 252.91423344 484.88325238 255.62294811 C484.88385753 257.66152982 484.88447133 259.70011153 484.88508606 261.73869324 C484.88528347 262.41232142 484.88548089 263.08594961 484.88568428 263.77999076 C484.89230861 285.60697034 484.93253183 307.43370366 484.99329157 329.26059544 C485.05748674 352.36410061 485.09252274 375.46749296 485.09403354 398.57110274 C485.09553245 411.15452363 485.10968184 423.7376399 485.15685081 436.32098007 C485.19685934 447.03873434 485.20910979 457.75607935 485.18586519 468.47389059 C485.17482488 473.93672865 485.17641323 479.39875357 485.21333313 484.86149597 C485.24689456 489.8747878 485.24265786 494.88665421 485.20986757 499.89993806 C485.20445788 501.70148765 485.21221781 503.50314247 485.23541638 505.30455081 C485.43487901 521.87027171 480.59804984 536.99079172 470.21931458 550.13371277 C469.6031427 550.94840027 468.98697083 551.76308777 468.35212708 552.60246277 C463.09202846 559.39760962 457.39788869 566.28372571 450.21931458 571.13371277 C449.55931458 571.13371277 448.89931458 571.13371277 448.21931458 571.13371277 C448.21931458 571.79371277 448.21931458 572.45371277 448.21931458 573.13371277 C446.08157737 574.66944352 443.97567159 576.04080878 441.71931458 577.38371277 C440.71348328 577.98324768 440.71348328 577.98324768 439.68733215 578.59489441 C423.56843609 587.89677446 407.91543517 590.43821285 389.55873108 590.39440918 C387.76166365 590.3974325 385.96459751 590.40132289 384.16753364 590.40600175 C379.24604725 590.4162673 374.32463383 590.41410358 369.4031415 590.40982115 C364.08874511 590.40735129 358.77436617 590.41637137 353.4599762 590.42385864 C343.05454 590.43660079 332.64912962 590.4383999 322.24368694 590.43605838 C313.7838972 590.43427438 305.32411528 590.43602661 296.86432648 590.44028282 C295.05733576 590.44117561 295.05733576 590.44117561 293.21384017 590.44208642 C290.76644375 590.4432982 288.31904733 590.44451233 285.8716509 590.4457288 C262.92499411 590.45660264 239.97835201 590.45444268 217.03169438 590.44834395 C196.05142463 590.44317593 175.07120131 590.45442751 154.09094074 590.47344217 C132.53669563 590.49282693 110.98247249 590.50107539 89.4282186 590.49731892 C77.33189856 590.49540772 65.23561804 590.4978865 53.13930511 590.51203346 C42.8405734 590.52395639 32.54190552 590.52534194 22.24317291 590.5132433 C16.99183654 590.50736083 11.74061689 590.50623772 6.48928833 590.5182457 C1.67531332 590.52912536 -3.13844778 590.52597635 -7.95241287 590.51198401 C-9.68721016 590.50934281 -11.42202432 590.51168536 -13.15680501 590.51971988 C-26.28735412 590.57627713 -38.79491846 589.5666252 -50.90568542 583.94621277 C-51.9026947 583.49447693 -51.9026947 583.49447693 -52.91984558 583.03361511 C-63.55032438 578.06182981 -72.32741396 571.2020717 -80.78068542 563.13371277 C-81.38267761 562.60648621 -81.9846698 562.07925964 -82.60490417 561.53605652 C-93.51493711 551.59241345 -104.99089641 533.32808678 -106.03598642 518.51510727 C-106.0486117 517.14235548 -106.05044947 515.76947712 -106.04354095 514.39668465 C-106.04764622 513.63309859 -106.05175149 512.86951254 -106.05598116 512.08278751 C-106.06730036 509.5211758 -106.06440931 506.95977987 -106.06156921 504.39814758 C-106.06673773 502.54408486 -106.07276439 500.69002436 -106.07957602 498.83596694 C-106.09570899 493.73829183 -106.09929477 488.64067305 -106.10077095 483.54297543 C-106.1044734 478.04577563 -106.11956897 472.54860503 -106.13304138 467.05142212 C-106.1602061 455.02836333 -106.17225772 443.00531789 -106.1810627 430.98223352 C-106.186589 423.472613 -106.19506409 415.96299763 -106.20407104 408.45338058 C-106.22845827 387.65579898 -106.24912586 366.85822063 -106.25582123 346.06062508 C-106.25626449 344.71602209 -106.25670806 343.37141911 -106.25715193 342.02681612 C-106.25759321 340.67901249 -106.25803417 339.33120886 -106.25847483 337.98340523 C-106.25935992 335.27960149 -106.26025415 332.57579775 -106.26115417 329.87199402 C-106.26148235 328.86641713 -106.26148235 328.86641713 -106.26181715 327.84052556 C-106.26907351 306.11808265 -106.30089511 284.39577344 -106.3475349 262.67338171 C-106.39678751 239.6919126 -106.42415617 216.71049834 -106.42655706 193.72896945 C-106.42838877 181.20769298 -106.43984756 168.6865915 -106.47619629 156.16536331 C-106.50704788 145.50020451 -106.51721027 134.83527475 -106.50072008 124.17007978 C-106.49292386 118.73206773 -106.49468273 113.29451656 -106.52283478 107.85656166 C-106.54841583 102.86942251 -106.5458294 97.88308808 -106.52165335 92.89594923 C-106.5177569 91.10042407 -106.52381496 89.30484089 -106.54134208 87.50939704 C-106.74083303 65.67577055 -98.22453032 47.25149922 -83.14884949 31.49333191 C-81.70676294 30.02626326 -80.24437324 28.57923067 -78.78068542 27.13371277 C-78.10392761 26.45824402 -77.4271698 25.78277527 -76.72990417 25.08683777 C-65.2942359 14.41028238 -51.18033642 7.42557262 -36.21818542 3.38371277 C-35.43870544 3.17262878 -34.65922546 2.9615448 -33.85612488 2.74406433 C-22.68058685 -0.10926453 -11.45523974 -0.01196786 0 0 Z M-32.78068542 32.13371277 C-33.88541199 32.51011902 -34.99013855 32.88652527 -36.12834167 33.27433777 C-43.04240034 36.09965095 -48.90659513 39.5240453 -54.78068542 44.13371277 C-55.4793573 44.67898621 -56.17802917 45.22425964 -56.89787292 45.78605652 C-64.72791267 52.26031117 -70.42637133 59.91481471 -75.09318542 68.88371277 C-75.41867371 69.49013611 -75.74416199 70.09655945 -76.07951355 70.72135925 C-81.9401667 82.55384738 -82.2216511 95.44042819 -82.1750946 108.34399414 C-82.17999362 110.04338297 -82.18618807 111.74276846 -82.19355249 113.44214839 C-82.20984677 118.07519634 -82.2076557 122.70807297 -82.20217752 127.34113944 C-82.19949429 132.35219284 -82.21406321 137.36320189 -82.22627258 142.37423706 C-82.24727381 152.1772148 -82.25187051 161.98013333 -82.2500847 171.78313092 C-82.24877448 179.75510327 -82.25259442 187.72705722 -82.26000977 195.69902611 C-82.26210907 197.99972858 -82.26420667 200.30043105 -82.26630259 202.60113353 C-82.26734611 203.7464324 -82.26838964 204.89173128 -82.26946479 206.07173618 C-82.28834548 227.70705087 -82.28732352 249.34233162 -82.28049546 270.97765114 C-82.27492063 290.74643421 -82.29574684 310.51508767 -82.32885593 330.28384046 C-82.36263277 350.60990996 -82.37775635 370.93591744 -82.3731389 391.26201552 C-82.37089839 402.66255672 -82.37607637 414.06297811 -82.40103149 425.46349525 C-82.42209612 435.16883213 -82.42558537 444.87398347 -82.4067319 454.5793281 C-82.39760622 459.52533151 -82.3963335 464.47098947 -82.41708755 469.41696548 C-82.43591985 473.95536639 -82.43115832 478.49314185 -82.40854174 483.03151985 C-82.40438672 484.66261881 -82.4084501 486.2937669 -82.42213768 487.92481373 C-82.58878202 509.25592561 -75.95670784 526.96215604 -60.83537292 542.34074402 C-44.64380049 557.78378802 -24.27883153 562.61650114 -2.56762695 562.50120544 C-0.85586483 562.50323346 0.85589615 562.50657711 2.56765348 562.51111102 C7.23930011 562.51970714 11.91074587 562.50974224 16.58237493 562.49656868 C21.63283188 562.48562324 26.68327128 562.49209117 31.73373413 562.49635315 C41.61406034 562.50197413 51.49430865 562.49169561 61.37462159 562.47606519 C72.88614118 562.45849328 84.39764584 562.45710525 95.90917674 562.4564496 C116.44966591 562.45476314 136.99011968 562.43896697 157.53059387 562.41496277 C177.45344842 562.39169731 197.37628053 562.37753652 217.29914856 562.37394714 C218.52669529 562.37372438 219.75424202 562.37350161 221.01898714 562.37327209 C223.49198818 562.37282948 225.96498922 562.37238746 228.43799027 562.37194602 C229.65795981 562.37172646 230.87792935 562.37150689 232.13486767 562.37128067 C233.35179619 562.37106468 234.56872472 562.3708487 235.82252986 562.37062617 C254.82342555 562.36692353 273.82431763 562.35556484 292.82520935 562.34315027 C299.70676719 562.33871929 306.5883247 562.33527925 313.4698834 562.33252814 C324.38401816 562.32809165 335.29813958 562.32030356 346.21226593 562.30575374 C351.1977785 562.29915787 356.18327937 562.29408261 361.16879654 562.293293 C365.73504098 562.29250369 370.30125582 562.28707402 374.86749104 562.2779735 C376.51666211 562.27547405 378.16583672 562.27462856 379.81500938 562.27563229 C396.41241648 562.37643171 396.41241648 562.37643171 412.46931458 558.63371277 C413.19167297 558.37525574 413.91403137 558.11679871 414.65827942 557.85050964 C422.22919091 554.98628945 428.69857904 550.87528073 435.21931458 546.13371277 C435.91411926 545.64257996 436.60892395 545.15144714 437.32478333 544.64543152 C446.1265811 537.81749228 452.47348251 527.49627009 456.21931458 517.13371277 C456.46594994 516.51449446 456.71258531 515.89527614 456.96669447 515.25729364 C459.90458318 506.98106322 459.63793057 498.71250998 459.6002655 490.06036377 C459.60372561 488.32715369 459.60849255 486.59394581 459.61444724 484.86074251 C459.62693845 480.11585143 459.62079538 475.37114201 459.61148858 470.62625039 C459.60469069 465.50209281 459.61518303 460.37796611 459.62342834 455.2538147 C459.63676024 445.22235383 459.63389026 435.19096035 459.62519042 425.15949685 C459.61841178 417.00526602 459.61749794 408.85105405 459.62076187 400.69682121 C459.62122157 399.53570034 459.62168127 398.37457947 459.6221549 397.17827312 C459.62311409 394.8193715 459.62408673 392.46046988 459.62507267 390.10156827 C459.63362507 367.98764771 459.62379497 345.87376446 459.60767157 323.75985002 C459.59427031 304.79241122 459.59659521 285.82502752 459.61042786 266.85758972 C459.62648935 244.8236586 459.63279925 222.78976019 459.62359107 200.75582403 C459.62263543 198.40535605 459.62169232 196.05488807 459.62076187 193.70442009 C459.62006763 191.96977719 459.62006763 191.96977719 459.61935937 190.20009099 C459.61677106 182.05784545 459.62113709 173.91562069 459.62820053 165.77337837 C459.63662212 155.84748703 459.63432156 145.92166685 459.6183583 135.99578363 C459.61048424 130.93317043 459.60736928 125.87067578 459.61730576 120.80806351 C459.62627109 116.17002742 459.6212895 111.53221935 459.6053731 106.89420383 C459.60203306 105.22002698 459.6037018 103.54583071 459.61100046 101.87166644 C459.64716629 92.88367587 459.23387916 84.71452838 456.21931458 76.13371277 C455.83130676 74.93359558 455.44329895 73.73347839 455.04353333 72.49699402 C452.55678457 65.82293636 449.90142154 60.49081456 445.21931458 55.13371277 C444.58380676 54.34480652 443.94829895 53.55590027 443.29353333 52.74308777 C432.49528071 39.87204443 417.93862735 31.39373273 401.21931458 29.13371277 C395.48957699 28.84354075 389.76791202 28.85891614 384.03207397 28.87301636 C382.28649083 28.86999283 380.54090901 28.86610234 378.79532951 28.86142379 C374.01627107 28.85116113 369.23728779 28.85332119 364.45822322 28.85760438 C359.29725965 28.86007472 354.13631403 28.85105367 348.97535706 28.84356689 C338.87172073 28.83082686 328.768111 28.8290253 318.664468 28.83136716 C310.45160132 28.8331511 302.23874271 28.83139905 294.025877 28.82714272 C292.85643005 28.82654753 291.68698309 28.82595234 290.48209835 28.82533911 C288.10628573 28.82412735 285.73047312 28.82291321 283.3546605 28.82169674 C261.08194428 28.81082407 238.80924321 28.81298252 216.53652614 28.81908158 C196.16531589 28.82425163 175.79415345 28.81299248 155.42295266 28.79398336 C134.49813881 28.77460752 113.57334758 28.76634845 92.6485247 28.77010661 C80.90385644 28.7720189 69.15922888 28.76952834 57.41456795 28.75539207 C47.4173157 28.74348064 37.42012921 28.74207084 27.42287607 28.75418224 C22.32380513 28.76007228 17.22485449 28.76116678 12.12579155 28.74917984 C7.45445366 28.73832611 2.78333658 28.74141841 -1.88799096 28.75544152 C-3.57428296 28.75808982 -5.26059224 28.75571776 -6.94686728 28.74770566 C-15.95838895 28.70787387 -24.18314739 29.08038334 -32.78068542 32.13371277 Z " fill="#F37A22" transform="translate(105.78068542480469,-0.1337127685546875)"/>
<path d="M0 0 C19.48842679 14.65468314 29.39006379 40.49472504 37.984375 62.4921875 C38.7915837 64.43189795 39.60316181 66.36980476 40.421875 68.3046875 C44.55994337 78.22091231 48.30530477 88.2608675 51.84155273 98.4050293 C53.48892054 103.1271829 55.20967102 107.81645512 56.984375 112.4921875 C57.38398438 113.54921875 57.78359375 114.60625 58.1953125 115.6953125 C60.58789559 121.9577783 63.06332051 128.17357083 65.67578125 134.34765625 C66.41485533 136.12364023 67.1417793 137.90515144 67.8269043 139.70263672 C70.31308773 146.16582324 73.32123039 152.18648939 76.671875 158.2421875 C77.20151855 159.20374756 77.73116211 160.16530762 78.27685547 161.15600586 C103.52321607 206.5773558 139.92210962 231.80579318 189.26953125 246.40234375 C198.2539023 248.92797012 207.35202924 250.89497927 216.484375 252.8046875 C217.27167999 252.96958679 218.05898499 253.13448608 218.87014771 253.30438232 C227.42669593 255.08274042 236.00216226 256.71307558 244.62109375 258.16015625 C245.3385376 258.28070877 246.05598145 258.40126129 246.79516602 258.52546692 C267.31489461 261.88715424 288.27268908 262.85791454 308.984375 264.4921875 C308.984375 272.4121875 308.984375 280.3321875 308.984375 288.4921875 C291.48686813 288.86185314 274.37607847 287.65275414 256.99267578 285.89355469 C253.50106429 285.54024855 250.00698061 285.22153711 246.51171875 284.90625 C189.10012239 279.30408785 130.10456872 260.02413862 87.984375 219.4921875 C87.30503906 218.87601563 86.62570312 218.25984375 85.92578125 217.625 C67.75977908 200.62977968 56.06085823 177.35687923 44.984375 155.4921875 C44.60152344 154.74332275 44.21867188 153.99445801 43.82421875 153.22290039 C38.9745196 143.66660427 35.64502318 133.54548252 32.171875 123.4296875 C28.96900349 114.10399328 25.44931928 104.95067424 21.73046875 95.8203125 C20.34059152 92.40337768 19.03334407 88.96820496 17.796875 85.4921875 C14.78089453 77.0395054 11.26910448 68.89416238 7.16015625 60.91796875 C5.98855124 58.5008036 5.04126091 56.07276219 4.109375 53.5546875 C0.95463157 45.45708696 -3.69797815 38.42694666 -10.015625 32.4921875 C-10.015625 31.8321875 -10.015625 31.1721875 -10.015625 30.4921875 C-15.90833071 32.11776149 -19.22243696 33.84436186 -22.6484375 38.96484375 C-31.30464445 54.96646061 -33.98959177 74.74335769 -37.13623047 92.41503906 C-38.40988724 99.48868667 -39.89422833 106.45857736 -41.640625 113.4296875 C-43.73777939 121.83922833 -45.14352031 130.22943915 -46.33984375 138.80859375 C-46.92500734 142.98264775 -47.65443737 147.10353343 -48.453125 151.2421875 C-51.20899301 165.6131013 -53.66875677 180.02120937 -55.390625 194.5546875 C-62.26815412 252.11131414 -62.26815412 252.11131414 -70.31274414 278.19946289 C-71.23779579 281.21688563 -72.05870419 284.26044629 -72.890625 287.3046875 C-77.85581989 304.60820502 -85.4591336 321.03723426 -95.85009766 335.76025391 C-97.05137884 337.54531648 -98.09477416 339.38081475 -99.15234375 341.25390625 C-101.56915802 345.13501958 -103.83556881 348.41998172 -108.015625 350.4921875 C-116.24051121 352.04521459 -124.73553547 351.29779207 -133.015625 350.4921875 C-131.06074504 347.14950891 -128.97567514 343.99027856 -126.69921875 340.859375 C-123.03651083 335.65715661 -119.9903901 330.26757525 -117.078125 324.6171875 C-116.30335815 323.11671875 -116.30335815 323.11671875 -115.51293945 321.5859375 C-107.02832137 304.88362127 -100.945471 287.54399994 -96.015625 269.4921875 C-95.7283252 268.44530762 -95.44102539 267.39842773 -95.14501953 266.31982422 C-88.5684514 241.76314623 -85.42182136 216.64067096 -82.015625 191.4921875 C-81.73528249 189.43016304 -81.45484687 187.36815124 -81.17431641 185.30615234 C-80.89874481 183.27832279 -80.62319125 181.25049078 -80.34765625 179.22265625 C-80.21318588 178.23396545 -80.07871552 177.24527466 -79.94017029 176.22662354 C-79.30479682 171.54965955 -78.67418449 166.87219234 -78.05639648 162.19287109 C-76.64400067 151.56846075 -74.94649048 141.03389974 -73.015625 130.4921875 C-72.60978982 128.17876842 -72.20602352 125.86498509 -71.8046875 123.55078125 C-69.33472357 109.45419476 -66.65896026 95.42354028 -63.64501953 81.43310547 C-62.99462205 78.3940488 -62.36148519 75.35172915 -61.73046875 72.30859375 C-59.67759713 62.49721306 -57.60083785 52.87942421 -54.015625 43.4921875 C-53.44714844 41.91824219 -53.44714844 41.91824219 -52.8671875 40.3125 C-46.77916512 23.83218464 -38.53311892 6.59510905 -22.015625 -1.5078125 C-15.02783389 -3.70904057 -6.38308237 -3.82457415 0 0 Z " fill="#F37D24" transform="translate(207.015625,119.5078125)"/>
<path d="M0 0 C1.36732013 3.69176436 0.46632841 5.4635609 -1 9 C-1.03874921 10.66621616 -1.0450286 12.33394172 -1 14 C-1.33 14.66 -1.66 15.32 -2 16 C-3.02339112 20.04001195 -3.12977681 23.85986448 -3.1386652 28.01836109 C-3.14150742 28.71636352 -3.14434964 29.41436596 -3.14727798 30.13351998 C-3.15561526 32.47784463 -3.15689243 34.8221198 -3.15821838 37.16645813 C-3.16278439 38.86194274 -3.16778447 40.55742624 -3.17318195 42.25290841 C-3.18676803 46.91625446 -3.19418279 51.57959322 -3.20060861 56.2429539 C-3.20861047 61.27018821 -3.22230899 66.29740734 -3.23532104 71.32463074 C-3.25708681 80.03607521 -3.27523095 88.74752121 -3.29092598 97.45897865 C-3.31362367 110.05433587 -3.34176666 122.64967627 -3.37124526 135.24501922 C-3.41892238 155.67937063 -3.46218625 176.1137289 -3.50268555 196.5480957 C-3.54203985 216.39998917 -3.58346593 236.25187652 -3.62768555 256.10375977 C-3.63040982 257.32711434 -3.63313409 258.5504689 -3.63594092 259.81089482 C-3.64962038 265.94801094 -3.66334066 272.08512697 -3.67708123 278.22224295 C-3.7910479 329.14814923 -3.89785685 380.07406873 -4 431 C-4.33 431 -4.66 431 -5 431 C-5.06869181 378.75195032 -5.12154184 326.50390522 -5.15319599 274.25581925 C-5.15694803 268.08509688 -5.16083101 261.91437459 -5.16479492 255.74365234 C-5.16558185 254.5151914 -5.16636878 253.28673046 -5.16717956 252.02104343 C-5.18022748 232.13945213 -5.20387796 212.2578869 -5.23145839 192.37631105 C-5.25952963 171.97048114 -5.2761799 151.56466488 -5.28226548 131.15881646 C-5.28637835 118.57101515 -5.29936074 105.98328752 -5.3237494 93.3955089 C-5.33962779 84.75935288 -5.34439559 76.12323486 -5.34050413 67.4870653 C-5.33858587 62.50717513 -5.34149171 57.52741359 -5.35761642 52.54754639 C-5.37229383 47.98113562 -5.37290183 43.4149391 -5.36269668 38.84851815 C-5.36143675 37.2035919 -5.36517556 35.55865187 -5.37464955 33.91375242 C-5.43845716 22.14313397 -4.69126601 11.00363947 0 0 Z " fill="#753E13" transform="translate(29,72)"/>
<path d="M0 0 C1.36732013 3.69176436 0.46632841 5.4635609 -1 9 C-1.03874921 10.66621616 -1.0450286 12.33394172 -1 14 C-1.33 14.66 -1.66 15.32 -2 16 C-2.76899457 19.25057021 -3.13052153 22.28994939 -3.15821838 25.6254425 C-3.1680072 26.52421616 -3.17779602 27.42298981 -3.18788147 28.34899902 C-3.19363693 29.32220093 -3.1993924 30.29540283 -3.20532227 31.2980957 C-3.21522186 32.33270432 -3.22512146 33.36731293 -3.23532104 34.43327332 C-3.26686704 37.84741948 -3.29166626 41.26157955 -3.31640625 44.67578125 C-3.33698173 47.04518492 -3.35797836 49.41458497 -3.37937927 51.78398132 C-3.43453856 58.01625635 -3.48397497 64.24856417 -3.53222656 70.480896 C-3.58248642 76.84211135 -3.63814908 83.20327916 -3.69335938 89.56445312 C-3.80086583 102.04292812 -3.90232751 114.52144442 -4 127 C-4.33 127 -4.66 127 -5 127 C-5.07039166 113.16037696 -5.12293466 99.32078209 -5.15543652 85.48101616 C-5.17104173 79.0535241 -5.19218555 72.62615296 -5.22631836 66.19873047 C-5.25909581 59.98712106 -5.27689164 53.77562741 -5.28463173 47.56393814 C-5.29014237 45.20306707 -5.30090262 42.84220178 -5.31719017 40.48138046 C-5.49855962 13.08406301 -5.49855962 13.08406301 0 0 Z " fill="#743E13" transform="translate(29,72)"/>
<path d="M0 0 C1.36732013 3.69176436 0.46632841 5.4635609 -1 9 C-1.03874921 10.66621616 -1.0450286 12.33394172 -1 14 C-1.33 14.66 -1.66 15.32 -2 16 C-3.06619896 20.21059858 -3.21267763 24.38702643 -3.31640625 28.70703125 C-3.33718735 29.43242599 -3.35796844 30.15782074 -3.37937927 30.90519714 C-3.44442215 33.20754113 -3.50354773 35.50999282 -3.5625 37.8125 C-3.60572835 39.37956814 -3.64934398 40.94662565 -3.69335938 42.51367188 C-3.80005668 46.34233936 -3.90144969 50.1711145 -4 54 C-4.33 54 -4.66 54 -5 54 C-5.07526453 49.27184362 -5.12911619 44.54405078 -5.16479492 39.81542969 C-5.17969902 38.21347973 -5.20002947 36.6115692 -5.22631836 35.00976562 C-5.42121719 22.81139183 -4.85558805 11.41979464 0 0 Z " fill="#5E3310" transform="translate(29,72)"/>
<path d="M0 0 C0.33 0 0.66 0 1 0 C1.33 2.64 1.66 5.28 2 8 C1.67 8 1.34 8 1 8 C0.67 11.96 0.34 15.92 0 20 C-0.66 20 -1.32 20 -2 20 C-2.33 20.99 -2.66 21.98 -3 23 C-2.2036893 15.30232994 -1.12178733 7.65647079 0 0 Z " fill="#B5651F" transform="translate(122,333)"/>
<path d="M0 0 C0.33 0 0.66 0 1 0 C0.67 6.27 0.34 12.54 0 19 C-0.66 19 -1.32 19 -2 19 C-2.33 19.99 -2.66 20.98 -3 22 C-2.24984418 14.62346781 -1.16558465 7.32168224 0 0 Z " fill="#AF611E" transform="translate(134,250)"/>
<path d="M0 0 C1 4 1 4 -0.1875 6.625 C-2 9 -2 9 -6 11 C-4.02 7.37 -2.04 3.74 0 0 Z " fill="#D77623" transform="translate(558,524)"/>
<path d="M0 0 C2.97 0.495 2.97 0.495 6 1 C6 1.99 6 2.98 6 4 C4.35 4 2.7 4 1 4 C0.67 2.68 0.34 1.36 0 0 Z " fill="#F1711A" transform="translate(515,2)"/>
<path d="M0 0 C0.33 0 0.66 0 1 0 C1 1.65 1 3.3 1 5 C1.66 5 2.32 5 3 5 C3 5.66 3 6.32 3 7 C1.68 7.99 0.36 8.98 -1 10 C-0.67 6.7 -0.34 3.4 0 0 Z " fill="#492A0F" transform="translate(153,298)"/>
</svg>
